<svg width="178" height="41" viewBox="0 0 178 41" fill="none" xmlns="http://www.w3.org/2000/svg">
<path d="M36.1583 20.4413C36.1583 18.5789 36.5783 16.9081 37.4182 15.4291C38.2581 13.9319 39.3993 12.7633 40.8418 11.9234C42.3025 11.0835 43.9185 10.6635 45.6896 10.6635C47.7712 10.6635 49.588 11.1656 51.14 12.1699C52.692 13.1741 53.8241 14.5984 54.5362 16.4425H51.5508C51.0213 15.2922 50.2544 14.4066 49.2502 13.7858C48.2642 13.165 47.0773 12.8546 45.6896 12.8546C44.3567 12.8546 43.1607 13.165 42.1017 13.7858C41.0427 14.4066 40.2119 15.2922 39.6093 16.4425C39.0067 17.5746 38.7055 18.9075 38.7055 20.4413C38.7055 21.9568 39.0067 23.2897 39.6093 24.4401C40.2119 25.5721 41.0427 26.4486 42.1017 27.0694C43.1607 27.6902 44.3567 28.0006 45.6896 28.0006C47.0773 28.0006 48.2642 27.6993 49.2502 27.0968C50.2544 26.476 51.0213 25.5904 51.5508 24.4401H54.5362C53.8241 26.266 52.692 27.6811 51.14 28.6853C49.588 29.6713 47.7712 30.1643 45.6896 30.1643C43.9185 30.1643 42.3025 29.7535 40.8418 28.9318C39.3993 28.0919 38.2581 26.9325 37.4182 25.4535C36.5783 23.9745 36.1583 22.3037 36.1583 20.4413ZM59.8075 12.5533C59.3327 12.5533 58.931 12.389 58.6024 12.0603C58.2737 11.7317 58.1094 11.33 58.1094 10.8552C58.1094 10.3805 58.2737 9.97877 58.6024 9.6501C58.931 9.32144 59.3327 9.15711 59.8075 9.15711C60.264 9.15711 60.6474 9.32144 60.9578 9.6501C61.2865 9.97877 61.4508 10.3805 61.4508 10.8552C61.4508 11.33 61.2865 11.7317 60.9578 12.0603C60.6474 12.389 60.264 12.5533 59.8075 12.5533ZM61.0126 14.9909V30H58.5202V14.9909H61.0126ZM68.0267 17.4285C68.4649 16.5703 69.0857 15.9039 69.8891 15.4291C70.7108 14.9544 71.7059 14.717 72.8745 14.717V17.2916H72.2172C69.4235 17.2916 68.0267 18.8071 68.0267 21.8381V30H65.5343V14.9909H68.0267V17.4285ZM75.0943 22.4681C75.0943 20.916 75.4047 19.5649 76.0255 18.4145C76.6463 17.2459 77.5045 16.3421 78.6001 15.703C79.7139 15.064 80.9829 14.7444 82.4071 14.7444C84.2513 14.7444 85.7668 15.1918 86.9537 16.0865C88.1588 16.9812 88.953 18.2228 89.3365 19.8114H86.6524C86.3968 18.8984 85.8946 18.1772 85.146 17.6476C84.4156 17.1181 83.5027 16.8534 82.4071 16.8534C80.9829 16.8534 79.8326 17.3464 78.9561 18.3324C78.0797 19.3001 77.6415 20.6787 77.6415 22.4681C77.6415 24.2757 78.0797 25.6726 78.9561 26.6586C79.8326 27.6446 80.9829 28.1376 82.4071 28.1376C83.5027 28.1376 84.4156 27.8819 85.146 27.3707C85.8764 26.8594 86.3785 26.129 86.6524 25.1796H89.3365C88.9348 26.7133 88.1314 27.9458 86.9263 28.8771C85.7212 29.79 84.2148 30.2465 82.4071 30.2465C80.9829 30.2465 79.7139 29.927 78.6001 29.2879C77.5045 28.6488 76.6463 27.745 76.0255 26.5764C75.4047 25.4078 75.0943 24.0384 75.0943 22.4681ZM95.4284 9.73227V30H92.936V9.73227H95.4284ZM113.644 21.9203C113.644 22.395 113.617 22.8972 113.562 23.4267H101.566C101.657 24.9057 102.159 26.0651 103.072 26.9051C104.004 27.7267 105.127 28.1376 106.441 28.1376C107.519 28.1376 108.413 27.8911 109.125 27.3981C109.856 26.8868 110.367 26.2112 110.659 25.3713H113.343C112.942 26.8138 112.138 27.9915 110.933 28.9044C109.728 29.7991 108.231 30.2465 106.441 30.2465C105.017 30.2465 103.739 29.927 102.607 29.2879C101.493 28.6488 100.617 27.745 99.9775 26.5764C99.3384 25.3895 99.0189 24.0201 99.0189 22.4681C99.0189 20.916 99.3293 19.5557 99.9501 18.3871C100.571 17.2185 101.438 16.3238 102.552 15.703C103.684 15.064 104.981 14.7444 106.441 14.7444C107.865 14.7444 109.125 15.0548 110.221 15.6756C111.316 16.2965 112.156 17.1546 112.741 18.2502C113.343 19.3275 113.644 20.5509 113.644 21.9203ZM111.07 21.3999C111.07 20.4504 110.86 19.6379 110.44 18.9623C110.02 18.2685 109.445 17.7481 108.715 17.4011C108.002 17.036 107.208 16.8534 106.332 16.8534C105.072 16.8534 103.995 17.2551 103.1 18.0585C102.223 18.8619 101.721 19.9757 101.593 21.3999H111.07ZM129.832 30.1917C128.426 30.1917 127.166 29.9635 126.052 29.507C124.939 29.0505 124.044 28.3749 123.368 27.4802C122.711 26.5855 122.364 25.5082 122.328 24.2483H127.312C127.385 24.9605 127.632 25.5082 128.052 25.8917C128.472 26.2569 129.02 26.4395 129.695 26.4395C130.389 26.4395 130.937 26.2842 131.339 25.9738C131.74 25.6452 131.941 25.1978 131.941 24.6318C131.941 24.1571 131.777 23.7645 131.448 23.4541C131.138 23.1437 130.745 22.888 130.27 22.6872C129.814 22.4863 129.157 22.2581 128.298 22.0025C127.057 21.619 126.043 21.2356 125.258 20.8521C124.473 20.4687 123.797 19.9027 123.231 19.154C122.665 18.4054 122.382 17.4285 122.382 16.2234C122.382 14.434 123.031 13.0372 124.327 12.0329C125.623 11.0104 127.312 10.4992 129.394 10.4992C131.512 10.4992 133.219 11.0104 134.516 12.0329C135.812 13.0372 136.506 14.4431 136.597 16.2508H131.53C131.494 15.63 131.266 15.1461 130.846 14.7992C130.426 14.434 129.887 14.2514 129.23 14.2514C128.664 14.2514 128.207 14.4066 127.86 14.717C127.513 15.0092 127.34 15.4383 127.34 16.0043C127.34 16.6251 127.632 17.109 128.216 17.4559C128.801 17.8028 129.713 18.1772 130.955 18.5789C132.197 18.9988 133.201 19.4005 133.968 19.784C134.753 20.1674 135.429 20.7243 135.995 21.4547C136.561 22.1851 136.844 23.1254 136.844 24.2757C136.844 25.3713 136.561 26.3664 135.995 27.2611C135.447 28.1558 134.643 28.8679 133.584 29.3974C132.525 29.927 131.275 30.1917 129.832 30.1917ZM146.957 30.2191C145.459 30.2191 144.108 29.8996 142.903 29.2605C141.716 28.6214 140.776 27.7085 140.082 26.5216C139.406 25.3348 139.069 23.9471 139.069 22.3585C139.069 20.7882 139.416 19.4097 140.109 18.2228C140.803 17.0177 141.753 16.0956 142.958 15.4565C144.163 14.8175 145.514 14.4979 147.011 14.4979C148.509 14.4979 149.86 14.8175 151.065 15.4565C152.27 16.0956 153.219 17.0177 153.913 18.2228C154.607 19.4097 154.954 20.7882 154.954 22.3585C154.954 23.9288 154.598 25.3165 153.886 26.5216C153.192 27.7085 152.233 28.6214 151.01 29.2605C149.805 29.8996 148.454 30.2191 146.957 30.2191ZM146.957 26.1656C147.851 26.1656 148.609 25.8369 149.23 25.1796C149.869 24.5222 150.188 23.5819 150.188 22.3585C150.188 21.1352 149.878 20.1948 149.257 19.5375C148.655 18.8801 147.906 18.5515 147.011 18.5515C146.098 18.5515 145.341 18.8801 144.738 19.5375C144.136 20.1765 143.834 21.1169 143.834 22.3585C143.834 23.5819 144.126 24.5222 144.711 25.1796C145.313 25.8369 146.062 26.1656 146.957 26.1656ZM165.382 18.6062H162.862V30H158.178V18.6062H156.48V14.717H158.178V14.2788C158.178 12.3981 158.717 10.9739 159.794 10.0062C160.872 9.02016 162.451 8.52716 164.533 8.52716C164.879 8.52716 165.135 8.53629 165.299 8.55455V12.5259C164.405 12.4712 163.775 12.599 163.41 12.9094C163.044 13.2198 162.862 13.7767 162.862 14.5801V14.717H165.382V18.6062ZM176.374 26.0286V30H173.991C172.293 30 170.969 29.5892 170.02 28.7675C169.07 27.9276 168.596 26.5673 168.596 24.6866V18.6062H166.733V14.717H168.596V10.9922H173.279V14.717H176.347V18.6062H173.279V24.7413C173.279 25.1978 173.389 25.5265 173.608 25.7273C173.827 25.9282 174.192 26.0286 174.703 26.0286H176.374Z" fill="black"/>
<path d="M27.0187 22.5398C28.6076 23.4629 29.1694 25.5302 27.9387 26.8948C26.3288 28.6797 24.3282 30.0907 22.0756 31.0074C18.7887 32.3449 15.1508 32.5541 11.7322 31.6022C8.3136 30.6504 5.30739 28.5912 3.18466 25.7474C1.06194 22.9036 -0.0573268 19.436 0.0022604 15.8878C0.0618476 12.3396 1.29692 8.91151 3.51394 6.14062C5.73095 3.36972 8.80462 1.41266 12.2533 0.576114C15.7019 -0.260431 19.3307 0.0708167 22.5709 1.51795C24.7914 2.5097 26.7435 3.98715 28.2925 5.82512C29.4767 7.23022 28.8458 9.27748 27.2269 10.1467C25.6079 11.016 23.6173 10.3428 22.2398 9.12659C21.5325 8.50213 20.7304 7.9838 19.8572 7.59385C17.9619 6.74734 15.8392 6.55358 13.8219 7.04292C11.8046 7.53226 10.0067 8.67705 8.70983 10.2979C7.41298 11.9187 6.69052 13.924 6.65566 15.9995C6.62081 18.0751 7.27553 20.1035 8.51722 21.767C9.75891 23.4304 11.5174 24.635 13.5171 25.1918C15.5169 25.7486 17.6448 25.6262 19.5675 24.8438C20.4533 24.4834 21.2724 23.9923 22.0003 23.3919C23.4178 22.2227 25.4299 21.6167 27.0187 22.5398Z" fill="#5932EA"/>
<path d="M20.6813 18.8577C21.6534 19.4224 21.9986 20.6963 21.1914 21.4788C20.5136 22.1357 19.7121 22.6616 18.8262 23.0221C17.3066 23.6404 15.6249 23.7372 14.0445 23.2971C12.464 22.8571 11.0743 21.9051 10.0929 20.5904C9.1116 19.2758 8.59416 17.6727 8.62171 16.0323C8.64926 14.392 9.22023 12.8072 10.2452 11.5262C11.2701 10.2452 12.691 9.34049 14.2853 8.95376C15.8796 8.56703 17.5572 8.72016 19.0551 9.38917C19.9284 9.77919 20.7119 10.3317 21.3672 11.0111C22.1477 11.8202 21.7599 13.0817 20.7694 13.6135C19.7789 14.1453 18.5448 13.6842 17.5419 13.1763C17.4936 13.1519 17.4446 13.1285 17.395 13.1064C16.7198 12.8048 15.9637 12.7358 15.245 12.9101C14.5264 13.0844 13.8859 13.4922 13.424 14.0696C12.962 14.647 12.7046 15.3613 12.6922 16.1007C12.6798 16.8401 12.913 17.5626 13.3554 18.1552C13.7977 18.7478 14.4241 19.1769 15.1365 19.3752C15.8488 19.5736 16.6069 19.53 17.2918 19.2513C17.3421 19.2308 17.3919 19.2091 17.441 19.1863C18.4604 18.7124 19.7093 18.2929 20.6813 18.8577Z" fill="#16C098"/>
</svg>
