<svg width="29" height="29" viewBox="0 0 29 29" fill="none" xmlns="http://www.w3.org/2000/svg">
<path d="M9.79726 26.9502H5.01141C2.63034 26.9502 1.48126 25.8485 1.48126 23.574V4.85711C1.48126 2.58265 2.64218 1.48096 5.01141 1.48096H9.79726C12.1783 1.48096 13.3274 2.58265 13.3274 4.85711V23.574C13.3274 25.8485 12.1665 26.9502 9.79726 26.9502ZM5.01141 3.25788C3.50695 3.25788 3.25818 3.66065 3.25818 4.85711V23.574C3.25818 24.7705 3.50695 25.1733 5.01141 25.1733H9.79726C11.3017 25.1733 11.5505 24.7705 11.5505 23.574V4.85711C11.5505 3.66065 11.3017 3.25788 9.79726 3.25788H5.01141Z" fill="#5932EA"/>
<path d="M23.4197 16.2886H18.6338C16.2527 16.2886 15.1037 15.187 15.1037 12.9125V4.85711C15.1037 2.58265 16.2646 1.48096 18.6338 1.48096H23.4197C25.8007 1.48096 26.9498 2.58265 26.9498 4.85711V12.9125C26.9498 15.187 25.7889 16.2886 23.4197 16.2886ZM18.6338 3.25788C17.1294 3.25788 16.8806 3.66065 16.8806 4.85711V12.9125C16.8806 14.109 17.1294 14.5117 18.6338 14.5117H23.4197C24.9241 14.5117 25.1729 14.109 25.1729 12.9125V4.85711C25.1729 3.66065 24.9241 3.25788 23.4197 3.25788H18.6338Z" fill="#5932EA"/>
<path d="M23.4197 26.9496H18.6338C16.2527 26.9496 15.1037 25.8479 15.1037 23.5734V21.4411C15.1037 19.1666 16.2646 18.0649 18.6338 18.0649H23.4197C25.8007 18.0649 26.9498 19.1666 26.9498 21.4411V23.5734C26.9498 25.8479 25.7889 26.9496 23.4197 26.9496ZM18.6338 19.8419C17.1294 19.8419 16.8806 20.2446 16.8806 21.4411V23.5734C16.8806 24.7699 17.1294 25.1726 18.6338 25.1726H23.4197C24.9241 25.1726 25.1729 24.7699 25.1729 23.5734V21.4411C25.1729 20.2446 24.9241 19.8419 23.4197 19.8419H18.6338Z" fill="#5932EA"/>
</svg>
