<svg width="28" height="29" viewBox="0 0 28 29" fill="none" xmlns="http://www.w3.org/2000/svg">
<path d="M19.8333 24.9307H8.16667C3.5 24.9307 2.33333 23.764 2.33333 19.0973V9.764C2.33333 5.09733 3.5 3.93066 8.16667 3.93066H19.8333C24.5 3.93066 25.6667 5.09733 25.6667 9.764V19.0973C25.6667 23.764 24.5 24.9307 19.8333 24.9307Z" stroke="#5932EA" stroke-width="1.75" stroke-linecap="round" stroke-linejoin="round"/>
<path d="M16.3333 9.76392H22.1667" stroke="#5932EA" stroke-width="1.75" stroke-linecap="round" stroke-linejoin="round"/>
<path d="M17.5 14.4307H22.1667" stroke="#5932EA" stroke-width="1.75" stroke-linecap="round" stroke-linejoin="round"/>
<path d="M19.8333 19.0974H22.1667" stroke="#5932EA" stroke-width="1.75" stroke-linecap="round" stroke-linejoin="round"/>
<path d="M9.91717 13.6022C11.0834 13.6022 12.0288 12.6568 12.0288 11.4906C12.0288 10.3243 11.0834 9.37891 9.91717 9.37891C8.75093 9.37891 7.8055 10.3243 7.8055 11.4906C7.8055 12.6568 8.75093 13.6022 9.91717 13.6022Z" stroke="#5932EA" stroke-width="1.75" stroke-linecap="round" stroke-linejoin="round"/>
<path d="M14 19.482C13.8367 17.7903 12.495 16.4603 10.8033 16.3086C10.22 16.2503 9.625 16.2503 9.03 16.3086C7.33833 16.472 5.99667 17.7903 5.83333 19.482" stroke="#5932EA" stroke-width="1.75" stroke-linecap="round" stroke-linejoin="round"/>
</svg>
