<svg width="28" height="29" viewBox="0 0 28 29" fill="none" xmlns="http://www.w3.org/2000/svg">
<path d="M19.8331 24.6372H8.1664C3.49974 24.6372 2.33307 23.4705 2.33307 18.8039V9.47054C2.33307 4.80387 3.49974 3.63721 8.1664 3.63721H19.8331C24.4997 3.63721 25.6664 4.80387 25.6664 9.47054V18.8039C25.6664 23.4705 24.4997 24.6372 19.8331 24.6372Z" stroke="#7B7B7B" stroke-width="1.75" stroke-linecap="round" stroke-linejoin="round"/>
<path d="M16.3331 9.47058H22.1664" stroke="#7B7B7B" stroke-width="1.75" stroke-linecap="round" stroke-linejoin="round"/>
<path d="M17.4998 14.1372H22.1664" stroke="#7B7B7B" stroke-width="1.75" stroke-linecap="round" stroke-linejoin="round"/>
<path d="M19.8331 18.8038H22.1664" stroke="#7B7B7B" stroke-width="1.75" stroke-linecap="round" stroke-linejoin="round"/>
<path d="M9.9169 13.3088C11.0831 13.3088 12.0286 12.3634 12.0286 11.1971C12.0286 10.0309 11.0831 9.08545 9.9169 9.08545C8.75066 9.08545 7.80524 10.0309 7.80524 11.1971C7.80524 12.3634 8.75066 13.3088 9.9169 13.3088Z" stroke="#7B7B7B" stroke-width="1.75" stroke-linecap="round" stroke-linejoin="round"/>
<path d="M13.9997 19.1886C13.8364 17.497 12.4947 16.167 10.8031 16.0153C10.2197 15.957 9.62474 15.957 9.02974 16.0153C7.33807 16.1786 5.9964 17.497 5.83307 19.1886" stroke="#7B7B7B" stroke-width="1.75" stroke-linecap="round" stroke-linejoin="round"/>
</svg>
