<svg width="28" height="29" viewBox="0 0 28 29" fill="none" xmlns="http://www.w3.org/2000/svg">
<path d="M19.833 25.4689H8.16634C3.49967 25.4689 2.33301 24.3022 2.33301 19.6355V10.3022C2.33301 5.63554 3.49967 4.46887 8.16634 4.46887H19.833C24.4997 4.46887 25.6663 5.63554 25.6663 10.3022V19.6355C25.6663 24.3022 24.4997 25.4689 19.833 25.4689Z" stroke="#7B7B7B" stroke-width="1.75" stroke-linecap="round" stroke-linejoin="round"/>
<path d="M16.333 10.3022H22.1663" stroke="#7B7B7B" stroke-width="1.75" stroke-linecap="round" stroke-linejoin="round"/>
<path d="M17.4998 14.9689H22.1664" stroke="#7B7B7B" stroke-width="1.75" stroke-linecap="round" stroke-linejoin="round"/>
<path d="M19.833 19.6355H22.1663" stroke="#7B7B7B" stroke-width="1.75" stroke-linecap="round" stroke-linejoin="round"/>
<path d="M9.91684 14.1404C11.0831 14.1404 12.0285 13.195 12.0285 12.0288C12.0285 10.8625 11.0831 9.91711 9.91684 9.91711C8.7506 9.91711 7.80518 10.8625 7.80518 12.0288C7.80518 13.195 8.7506 14.1404 9.91684 14.1404Z" stroke="#7B7B7B" stroke-width="1.75" stroke-linecap="round" stroke-linejoin="round"/>
<path d="M13.9997 20.0203C13.8363 18.3286 12.4947 16.9986 10.803 16.847C10.2197 16.7886 9.62467 16.7886 9.02967 16.847C7.33801 17.0103 5.99634 18.3286 5.83301 20.0203" stroke="#7B7B7B" stroke-width="1.75" stroke-linecap="round" stroke-linejoin="round"/>
</svg>
