<svg width="31" height="30" viewBox="0 0 31 30" fill="none" xmlns="http://www.w3.org/2000/svg">
<path d="M18.5354 20.749H12.4312C11.9307 20.749 11.5156 20.3339 11.5156 19.8333C11.5156 19.3328 11.9307 18.9177 12.4312 18.9177H18.5354C19.036 18.9177 19.451 19.3328 19.451 19.8333C19.451 20.3339 19.036 20.749 18.5354 20.749Z" fill="#5932EA"/>
<path d="M7.18189 13.0699C6.94993 13.0699 6.71797 12.9722 6.53485 12.8013C6.27847 12.5449 6.19301 12.1421 6.33951 11.8002L8.61026 6.37973C8.6591 6.26986 8.68351 6.19661 8.72014 6.13556C10.527 1.97252 12.8343 0.95923 16.9119 2.5219C17.1439 2.60735 17.327 2.79048 17.4247 3.02244C17.5223 3.2544 17.5223 3.51077 17.4247 3.74273L13.8476 12.0444C13.7011 12.374 13.3715 12.5938 13.0053 12.5938H9.52589C8.83001 12.5938 8.17076 12.7281 7.53593 12.9966C7.42606 13.0455 7.30397 13.0699 7.18189 13.0699ZM13.7866 3.65727C12.2728 3.65727 11.3449 4.64615 10.3805 6.89248C10.3683 6.9291 10.3438 6.96573 10.3316 7.00235L8.73235 10.7991C9.00093 10.7747 9.25731 10.7625 9.52589 10.7625H12.3948L15.3371 3.92585C14.7633 3.74273 14.2505 3.65727 13.7866 3.65727Z" fill="#5932EA"/>
<path d="M23.1627 12.838C23.0773 12.838 22.9796 12.8258 22.8941 12.8014C22.4424 12.6671 21.9419 12.5939 21.4291 12.5939H13.0054C12.7002 12.5939 12.4072 12.4352 12.2363 12.1788C12.0775 11.9224 12.0409 11.5928 12.163 11.312L15.7034 3.09579C15.8865 2.65629 16.4115 2.36329 16.8754 2.50979C17.0219 2.55862 17.1562 2.61966 17.3027 2.68071L20.1839 3.88933C21.8686 4.58521 22.9918 5.31771 23.7243 6.19671C23.8708 6.36762 23.9929 6.55075 24.1028 6.73387C24.237 6.94141 24.3591 7.19779 24.4446 7.45416C24.4812 7.53962 24.5423 7.69833 24.5789 7.86925C24.9207 9.01683 24.7498 10.4452 24.0173 12.2765C23.8708 12.6183 23.529 12.838 23.1627 12.838ZM14.3971 10.7626H21.4413C21.832 10.7626 22.2105 10.7992 22.5889 10.8603C22.9308 9.79816 23.004 8.98021 22.8087 8.32096C22.7843 8.21108 22.7598 8.16225 22.7476 8.11341C22.6744 7.91808 22.6255 7.80821 22.5645 7.71054C22.479 7.57625 22.418 7.46637 22.3203 7.3565C21.7954 6.72166 20.8675 6.13566 19.488 5.57408L17.0708 4.56079L14.3971 10.7626Z" fill="#5932EA"/>
<path d="M20.2446 28.0741H10.7221C10.3802 28.0741 10.0628 28.0497 9.74538 28.0131C5.46026 27.7201 3.01859 25.2784 2.72559 20.9444C2.68897 20.6759 2.66455 20.3462 2.66455 20.0166V17.636C2.66455 14.8891 4.30047 12.4108 6.82759 11.3121C7.68218 10.9458 8.5978 10.7627 9.53784 10.7627H21.4532C22.149 10.7627 22.8205 10.8604 23.4431 11.0557C26.3121 11.9225 28.3265 14.6327 28.3265 17.636V20.0166C28.3265 20.2852 28.3143 20.5416 28.302 20.7857C28.0335 25.5592 25.25 28.0741 20.2446 28.0741ZM9.52563 12.5939C8.82976 12.5939 8.17051 12.7282 7.53568 12.9968C5.68001 13.8026 4.48359 15.6216 4.48359 17.636V20.0166C4.48359 20.273 4.50801 20.5294 4.53243 20.7735C4.76438 24.2529 6.47355 25.9621 9.90409 26.194C10.2093 26.2307 10.4535 26.2551 10.7098 26.2551H20.2323C24.2611 26.2551 26.2388 24.4849 26.4342 20.7003C26.4464 20.4805 26.4586 20.2608 26.4586 20.0166V17.636C26.4586 15.4263 24.9814 13.4485 22.8815 12.8015C22.4298 12.6672 21.9293 12.5939 21.4166 12.5939H9.52563Z" fill="#5932EA"/>
<path d="M3.56846 18.5515C3.06792 18.5515 2.65283 18.1364 2.65283 17.6359V14.0588C2.65283 10.2132 5.37529 6.89253 9.13546 6.16003C9.46508 6.09898 9.80692 6.22107 10.0267 6.47744C10.2342 6.73382 10.2952 7.10007 10.161 7.40528L8.0245 12.5084C7.92683 12.7281 7.75592 12.899 7.54837 12.9967C5.69271 13.8024 4.49629 15.6215 4.49629 17.6359C4.48408 18.1364 4.08121 18.5515 3.56846 18.5515ZM7.67046 8.62611C6.10779 9.50511 4.97242 11.0434 4.61837 12.838C5.15554 12.2886 5.77817 11.8247 6.48625 11.4829L7.67046 8.62611Z" fill="#5932EA"/>
<path d="M27.3988 18.5516C26.8983 18.5516 26.4832 18.1365 26.4832 17.636C26.4832 15.4262 25.006 13.4485 22.9061 12.8015C22.662 12.7282 22.4544 12.5573 22.3445 12.3253C22.2347 12.0934 22.2225 11.8248 22.3201 11.5928C22.8939 10.1645 23.0404 9.12674 22.8085 8.32099C22.784 8.21112 22.7596 8.16229 22.7474 8.11345C22.5887 7.75941 22.6742 7.34433 22.955 7.07574C23.2358 6.80716 23.663 6.74612 24.0049 6.92924C26.6663 8.32099 28.3144 11.0557 28.3144 14.0589V17.636C28.3144 18.1365 27.8993 18.5516 27.3988 18.5516ZM24.3345 11.3975C25.1036 11.7515 25.7873 12.2521 26.3611 12.8503C26.1291 11.6539 25.5553 10.5673 24.713 9.71274C24.6519 10.2255 24.5298 10.7871 24.3345 11.3975Z" fill="#5932EA"/>
</svg>
