<svg width="28" height="28" viewBox="0 0 28 28" fill="none" xmlns="http://www.w3.org/2000/svg">
<path d="M13.7307 13.9223C13.6968 13.9223 13.6742 13.9223 13.6403 13.9223C13.5839 13.911 13.5048 13.911 13.4371 13.9223C10.1623 13.8207 7.68921 11.246 7.68921 8.07282C7.68921 4.84318 10.3204 2.21204 13.55 2.21204C16.7796 2.21204 19.4108 4.84318 19.4108 8.07282C19.3995 11.246 16.9151 13.8207 13.7646 13.9223C13.7533 13.9223 13.742 13.9223 13.7307 13.9223ZM13.55 3.90591C11.2576 3.90591 9.38308 5.78045 9.38308 8.07282C9.38308 10.3313 11.1447 12.1494 13.3919 12.2284C13.4484 12.2172 13.6065 12.2172 13.7533 12.2284C15.9666 12.1268 17.7056 10.3087 17.7169 8.07282C17.7169 5.78045 15.8424 3.90591 13.55 3.90591Z" fill="#7B7B7B"/>
<path d="M13.7422 26.2651C11.5289 26.2651 9.3043 25.7005 7.62173 24.5712C6.05207 23.5323 5.19385 22.1095 5.19385 20.5624C5.19385 19.0153 6.05207 17.5812 7.62173 16.531C11.0095 14.2838 16.4976 14.2838 19.8628 16.531C21.4211 17.5699 22.2906 18.9927 22.2906 20.5398C22.2906 22.0869 21.4324 23.521 19.8628 24.5712C18.1689 25.7005 15.9556 26.2651 13.7422 26.2651ZM8.559 17.9538C7.47492 18.6765 6.88772 19.6025 6.88772 20.5737C6.88772 21.5335 7.48622 22.4595 8.559 23.1709C11.3708 25.0568 16.1137 25.0568 18.9255 23.1709C20.0096 22.4482 20.5968 21.5222 20.5968 20.5511C20.5968 19.5912 19.9983 18.6653 18.9255 17.9538C16.1137 16.0793 11.3708 16.0793 8.559 17.9538Z" fill="#7B7B7B"/>
</svg>
