<svg width="28" height="28" viewBox="0 0 28 28" fill="none" xmlns="http://www.w3.org/2000/svg">
<path d="M13.7312 13.5526C13.6973 13.5526 13.6747 13.5526 13.6409 13.5526C13.5844 13.5413 13.5053 13.5413 13.4376 13.5526C10.1628 13.4509 7.68972 10.8763 7.68972 7.70307C7.68972 4.47343 10.3209 1.84229 13.5505 1.84229C16.7802 1.84229 19.4113 4.47343 19.4113 7.70307C19.4 10.8763 16.9157 13.4509 13.7651 13.5526C13.7538 13.5526 13.7425 13.5526 13.7312 13.5526ZM13.5505 3.53615C11.2581 3.53615 9.38359 5.4107 9.38359 7.70307C9.38359 9.96156 11.1452 11.7796 13.3924 11.8587C13.4489 11.8474 13.607 11.8474 13.7538 11.8587C15.9671 11.7571 17.7061 9.93898 17.7174 7.70307C17.7174 5.4107 15.8429 3.53615 13.5505 3.53615Z" fill="#5932EA"/>
<path d="M13.7425 25.8951C11.5292 25.8951 9.30455 25.3305 7.62197 24.2012C6.05232 23.1623 5.19409 21.7395 5.19409 20.1924C5.19409 18.6453 6.05232 17.2112 7.62197 16.161C11.0097 13.9138 16.4978 13.9138 19.863 16.161C21.4214 17.1999 22.2909 18.6227 22.2909 20.1698C22.2909 21.7169 21.4326 23.151 19.863 24.2012C18.1691 25.3305 15.9558 25.8951 13.7425 25.8951ZM8.55924 17.5838C7.47517 18.3066 6.88796 19.2325 6.88796 20.2037C6.88796 21.1635 7.48646 22.0895 8.55924 22.801C11.3711 24.6868 16.1139 24.6868 18.9257 22.801C20.0098 22.0782 20.597 21.1523 20.597 20.1811C20.597 19.2212 19.9985 18.2953 18.9257 17.5838C16.1139 15.7093 11.3711 15.7093 8.55924 17.5838Z" fill="#5932EA"/>
</svg>
