<svg width="28" height="28" viewBox="0 0 28 28" fill="none" xmlns="http://www.w3.org/2000/svg">
<path d="M13.551 18.3182C11.2134 18.3182 9.31628 16.4211 9.31628 14.0835C9.31628 11.746 11.2134 9.84888 13.551 9.84888C15.8885 9.84888 17.7856 11.746 17.7856 14.0835C17.7856 16.4211 15.8885 18.3182 13.551 18.3182ZM13.551 11.5427C12.1507 11.5427 11.0101 12.6833 11.0101 14.0835C11.0101 15.4838 12.1507 16.6244 13.551 16.6244C14.9512 16.6244 16.0918 15.4838 16.0918 14.0835C16.0918 12.6833 14.9512 11.5427 13.551 11.5427Z" fill="#5932EA"/>
<path d="M17.1758 25.5909C16.9387 25.5909 16.7016 25.557 16.4644 25.5005C15.7643 25.3086 15.1771 24.8682 14.8044 24.2471L14.6689 24.0212C14.0027 22.8694 13.088 22.8694 12.4217 24.0212L12.2975 24.2358C11.9248 24.8682 11.3376 25.3199 10.6375 25.5005C9.92607 25.6925 9.19207 25.5909 8.57098 25.2182L6.62868 24.1003C5.93984 23.705 5.44297 23.0614 5.22841 22.2822C5.02515 21.503 5.12678 20.7012 5.52202 20.0124C5.8495 19.4365 5.93984 18.917 5.74786 18.5896C5.55589 18.2621 5.07032 18.0701 4.40406 18.0701C2.75536 18.0701 1.41156 16.7263 1.41156 15.0776V13.0901C1.41156 11.4414 2.75536 10.0976 4.40406 10.0976C5.07032 10.0976 5.55589 9.90565 5.74786 9.57817C5.93984 9.25069 5.86079 8.73124 5.52202 8.15532C5.12678 7.46648 5.02515 6.65342 5.22841 5.88554C5.43168 5.10636 5.92854 4.46269 6.62868 4.06745L8.58227 2.9495C9.85832 2.1929 11.5409 2.63331 12.3088 3.93194L12.4443 4.15779C13.1105 5.30962 14.0252 5.30962 14.6915 4.15779L14.8157 3.94323C15.5836 2.63331 17.2662 2.1929 18.5535 2.96079L20.4958 4.07874C21.1847 4.47398 21.6815 5.11765 21.8961 5.89683C22.0993 6.67601 21.9977 7.47777 21.6025 8.16661C21.275 8.74253 21.1847 9.26198 21.3766 9.58946C21.5686 9.91695 22.0542 10.1089 22.7204 10.1089C24.3691 10.1089 25.7129 11.4527 25.7129 13.1014V15.0889C25.7129 16.7376 24.3691 18.0814 22.7204 18.0814C22.0542 18.0814 21.5686 18.2734 21.3766 18.6008C21.1847 18.9283 21.2637 19.4478 21.6025 20.0237C21.9977 20.7125 22.1106 21.5256 21.8961 22.2935C21.6928 23.0727 21.1959 23.7163 20.4958 24.1116L18.5422 25.2295C18.1131 25.4667 17.6501 25.5909 17.1758 25.5909ZM13.551 21.4127C14.556 21.4127 15.4933 22.045 16.1369 23.163L16.2611 23.3776C16.3967 23.6147 16.6225 23.7841 16.8935 23.8518C17.1645 23.9196 17.4356 23.8857 17.6614 23.7502L19.615 22.621C19.9086 22.4516 20.1345 22.1693 20.2248 21.8305C20.3151 21.4917 20.27 21.1416 20.1006 20.848C19.4569 19.7414 19.3779 18.6008 19.8747 17.7313C20.3716 16.8618 21.3992 16.3649 22.6866 16.3649C23.4093 16.3649 23.9852 15.789 23.9852 15.0663V13.0788C23.9852 12.3674 23.4093 11.7802 22.6866 11.7802C21.3992 11.7802 20.3716 11.2833 19.8747 10.4138C19.3779 9.54429 19.4569 8.40376 20.1006 7.29709C20.27 7.00349 20.3151 6.65342 20.2248 6.31465C20.1345 5.97588 19.9199 5.70486 19.6263 5.52418L17.6727 4.40622C17.1871 4.11262 16.5435 4.28201 16.2499 4.77888L16.1256 4.99343C15.482 6.11139 14.5447 6.74376 13.5397 6.74376C12.5346 6.74376 11.5974 6.11139 10.9537 4.99343L10.8295 4.76758C10.5472 4.2933 9.91478 4.12391 9.42921 4.40622L7.47561 5.53547C7.18201 5.70486 6.95616 5.98717 6.86582 6.32594C6.77548 6.66472 6.82065 7.01478 6.99004 7.30839C7.63371 8.41505 7.71275 9.55559 7.21588 10.4251C6.71902 11.2946 5.6914 11.7915 4.40406 11.7915C3.68134 11.7915 3.10543 12.3674 3.10543 13.0901V15.0776C3.10543 15.789 3.68134 16.3762 4.40406 16.3762C5.6914 16.3762 6.71902 16.8731 7.21588 17.7426C7.71275 18.6121 7.63371 19.7527 6.99004 20.8593C6.82065 21.1529 6.77548 21.503 6.86582 21.8418C6.95616 22.1806 7.17071 22.4516 7.46432 22.6323L9.41791 23.7502C9.65506 23.897 9.93737 23.9309 10.1971 23.8631C10.4681 23.7954 10.694 23.6147 10.8408 23.3776L10.965 23.163C11.6087 22.0563 12.5459 21.4127 13.551 21.4127Z" fill="#5932EA"/>
</svg>
