<svg width="28" height="28" viewBox="0 0 28 28" fill="none" xmlns="http://www.w3.org/2000/svg">
<path d="M13.5506 17.7856C11.2131 17.7856 9.31592 15.8885 9.31592 13.551C9.31592 11.2134 11.2131 9.31628 13.5506 9.31628C15.8881 9.31628 17.7853 11.2134 17.7853 13.551C17.7853 15.8885 15.8881 17.7856 13.5506 17.7856ZM13.5506 11.0102C12.1503 11.0102 11.0098 12.1507 11.0098 13.551C11.0098 14.9512 12.1503 16.0918 13.5506 16.0918C14.9509 16.0918 16.0914 14.9512 16.0914 13.551C16.0914 12.1507 14.9509 11.0102 13.5506 11.0102Z" fill="#7B7B7B"/>
<path d="M17.1757 25.0579C16.9385 25.0579 16.7014 25.024 16.4642 24.9676C15.7641 24.7756 15.1769 24.3352 14.8042 23.7141L14.6687 23.4883C14.0025 22.3364 13.0878 22.3364 12.4215 23.4883L12.2973 23.7028C11.9247 24.3352 11.3374 24.7869 10.6373 24.9676C9.92589 25.1596 9.19188 25.0579 8.5708 24.6853L6.62849 23.5673C5.93965 23.1721 5.44279 22.5284 5.22823 21.7492C5.02496 20.97 5.1266 20.1683 5.52183 19.4794C5.84931 18.9035 5.93965 18.3841 5.74768 18.0566C5.55571 17.7291 5.07013 17.5371 4.40388 17.5371C2.75518 17.5371 1.41138 16.1933 1.41138 14.5446V12.5572C1.41138 10.9085 2.75518 9.56467 4.40388 9.56467C5.07013 9.56467 5.55571 9.37269 5.74768 9.04521C5.93965 8.71773 5.86061 8.19828 5.52183 7.62236C5.1266 6.93352 5.02496 6.12046 5.22823 5.35258C5.43149 4.5734 5.92836 3.92973 6.62849 3.53449L8.58209 2.41654C9.85814 1.65994 11.5407 2.10035 12.3086 3.39898L12.4441 3.62483C13.1104 4.77666 14.0251 4.77666 14.6913 3.62483L14.8155 3.41027C15.5834 2.10035 17.266 1.65994 18.5533 2.42783L20.4956 3.54578C21.1845 3.94102 21.6813 4.58469 21.8959 5.36387C22.0992 6.14305 21.9975 6.94482 21.6023 7.63366C21.2748 8.20957 21.1845 8.72902 21.3764 9.05651C21.5684 9.38399 22.054 9.57596 22.7202 9.57596C24.3689 9.57596 25.7128 10.9198 25.7128 12.5685V14.5559C25.7128 16.2046 24.3689 17.5484 22.7202 17.5484C22.054 17.5484 21.5684 17.7404 21.3764 18.0679C21.1845 18.3954 21.2635 18.9148 21.6023 19.4907C21.9975 20.1796 22.1105 20.9926 21.8959 21.7605C21.6926 22.5397 21.1958 23.1834 20.4956 23.5786L18.542 24.6966C18.1129 24.9337 17.6499 25.0579 17.1757 25.0579ZM13.5508 20.8797C14.5558 20.8797 15.4931 21.5121 16.1367 22.63L16.261 22.8446C16.3965 23.0817 16.6223 23.2511 16.8933 23.3189C17.1644 23.3866 17.4354 23.3528 17.6612 23.2172L19.6148 22.088C19.9084 21.9186 20.1343 21.6363 20.2246 21.2975C20.315 20.9588 20.2698 20.6087 20.1004 20.3151C19.4567 19.2084 19.3777 18.0679 19.8745 17.1984C20.3714 16.3288 21.399 15.832 22.6864 15.832C23.4091 15.832 23.985 15.2561 23.985 14.5333V12.5459C23.985 11.8344 23.4091 11.2472 22.6864 11.2472C21.399 11.2472 20.3714 10.7504 19.8745 9.88085C19.3777 9.01134 19.4567 7.8708 20.1004 6.76414C20.2698 6.47053 20.315 6.12046 20.2246 5.78169C20.1343 5.44292 19.9197 5.1719 19.6261 4.99122L17.6725 3.87327C17.1869 3.57966 16.5433 3.74905 16.2497 4.24592L16.1255 4.46047C15.4818 5.57843 14.5445 6.2108 13.5395 6.2108C12.5344 6.2108 11.5972 5.57843 10.9535 4.46047L10.8293 4.23462C10.547 3.76034 9.9146 3.59095 9.42902 3.87327L7.47543 5.00251C7.18182 5.1719 6.95597 5.45421 6.86564 5.79298C6.7753 6.13176 6.82047 6.48182 6.98985 6.77543C7.63352 7.88209 7.71257 9.02263 7.2157 9.89215C6.71883 10.7617 5.69122 11.2585 4.40388 11.2585C3.68116 11.2585 3.10525 11.8344 3.10525 12.5572V14.5446C3.10525 15.2561 3.68116 15.8433 4.40388 15.8433C5.69122 15.8433 6.71883 16.3401 7.2157 17.2097C7.71257 18.0792 7.63352 19.2197 6.98985 20.3264C6.82047 20.62 6.7753 20.9701 6.86564 21.3088C6.95597 21.6476 7.17053 21.9186 7.46414 22.0993L9.41773 23.2172C9.65487 23.3641 9.93718 23.3979 10.1969 23.3302C10.4679 23.2624 10.6938 23.0817 10.8406 22.8446L10.9648 22.63C11.6085 21.5234 12.5457 20.8797 13.5508 20.8797Z" fill="#7B7B7B"/>
</svg>
